# xmcd CD database file
#
# Track frame offsets:
#	150
#	19131
#	40187
#	55147
#	71945
#	86144
#	99696
#	115044
#	136316
#	157372
#	175969
#	197241
#	210755
#	230426
#	245972
#
# Disc length: 3447 seconds
#
# Revision: 1
# Processed by: cddbd v1.5.1PL0 Copyright (c) Steve Scherf et al.
# Submitted via: CDex 1.50
#
DISCID=dc0d750f
DTITLE=Giorgios Dalaras - Sta Tragoudia pou sou grafo
DYEAR=2004
DGENRE=Ethnic
TTITLE0=Which God do you believe in?
TTITLE1=The Hunch (Time has gone by)
TTITLE2=Seven Times
TTITLE3=Like a fever
TTITLE4=You said I'm going
TTITLE5=Shining nights
TTITLE6=I want to come back
TTITLE7=The voices were hushed
TTITLE8=All I know
TTITLE9=Tomrent, mystery
TTITLE10=One more time
TTITLE11=Don't rush to disappear
TTITLE12=In the songs that I write for you
TTITLE13=Alone
TTITLE14=Remember me
EXTD=YEAR: 2004
EXTT0=
EXTT1=
EXTT2=
EXTT3=
EXTT4=
EXTT5=
EXTT6=
EXTT7=
EXTT8=
EXTT9=
EXTT10=
EXTT11=
EXTT12=
EXTT13=
EXTT14=
PLAYORDER=
